PathFileType	4	(X/Y/Z)	OpenSim_Sub09_EMGBaseline_Magnet.trc
DataRate	CameraRate	NumFrames	NumMarkers	Units	OrigDataRate	OrigDataStartFrame	OrigNumFrames
100	100	33	8	m	100	913	7301
Frame#	Time	torso_imu_offset_imu	pelvis_imu_offset_imu	tibia_r_imu_offset_imu	femur_r_imu_offset_imu	tibia_l_imu_offset_imu	femur_l_imu_offset_imu	toes_r_imu_offset_imu	toes_l_imu_offset_imu
				X1	Y1	Z1	X2	Y2	Z2	X3	Y3	Z3	X4	Y4	Z4	X5	Y5	Z5	X6	Y6	Z6	X7	Y7	Z7	X8		Y8	Z8	

913	9.12000000	-0.92211900	-0.20068400	0.05737300	-0.67358400	0.30029300	-0.58129900	-0.75585900	-0.41137700	-0.16943400	-0.82666000	-0.21460000	-0.03149400	-0.40966800	0.69165000	0.22924800	-0.67358400	0.37085000	0.32080100	-0.60449200	-0.06445300	-0.50244100	-0.81811500	-0.06103500	-0.23364300
914	9.13000000	-0.92651400	-0.20068400	0.05297900	-0.67163100	0.30444300	-0.57446300	-0.75341800	-0.41992200	-0.16455100	-0.82861300	-0.22290000	-0.03125000	-0.39868200	0.69824200	0.22656200	-0.68017600	0.36840800	0.31640600	-0.61669900	-0.07104500	-0.48803700	-0.82910200	-0.06567400	-0.20678700
915	9.14000000	-0.92871100	-0.20068400	0.05297900	-0.67407200	0.31079100	-0.57690400	-0.74438500	-0.43652300	-0.16186500	-0.82861300	-0.22509800	-0.02417000	-0.38330100	0.70703100	0.22363300	-0.68457000	0.37280300	0.31420900	-0.63330100	-0.07739300	-0.46704100	-0.83154300	-0.05932600	-0.18432600
916	9.15000000	-0.92431600	-0.20068400	0.04858400	-0.67846700	0.31274400	-0.57470700	-0.73535200	-0.45752000	-0.14331100	-0.82861300	-0.22509800	-0.02197300	-0.37011700	0.71582000	0.22753900	-0.68896500	0.37280300	0.30957000	-0.64135700	-0.08789100	-0.45019500	-0.83422900	-0.04638700	-0.15283200
917	9.16000000	-0.93090800	-0.19458000	0.04174800	-0.67627000	0.31494100	-0.57006800	-0.72045900	-0.46801800	-0.12939500	-0.82666000	-0.21679700	-0.02002000	-0.35693400	0.71801800	0.22949200	-0.69116200	0.36840800	0.30737300	-0.64965800	-0.08593800	-0.43579100	-0.85009800	-0.03784200	-0.12817400
918	9.17000000	-0.92651400	-0.20068400	0.04418900	-0.67431600	0.31713900	-0.56567400	-0.71362300	-0.48266600	-0.10888700	-0.82910200	-0.20849600	-0.02026400	-0.34155300	0.72900400	0.22876000	-0.69091800	0.36621100	0.30078100	-0.65600600	-0.08813500	-0.42114300	-0.84619100	-0.02246100	-0.09008800
919	9.18000000	-0.92651400	-0.19873000	0.03955100	-0.68261700	0.31274400	-0.56543000	-0.70898400	-0.49707000	-0.10156200	-0.83129900	-0.20239300	-0.00903300	-0.32836900	0.74218800	0.22778300	-0.69751000	0.36401400	0.29174800	-0.65795900	-0.09643600	-0.41479500	-0.84228500	-0.00732400	-0.05639600
920	9.19000000	-0.92871100	-0.19433600	0.03295900	-0.68505900	0.31494100	-0.56543000	-0.70874000	-0.50561500	-0.08349600	-0.83569300	-0.19628900	-0.00024400	-0.30615200	0.74462900	0.22753900	-0.70190400	0.36157200	0.29858400	-0.66381800	-0.10473600	-0.41479500	-0.84082000	0.00781200	-0.02050800
921	9.20000000	-0.93090800	-0.19653300	0.03295900	-0.68261700	0.31054700	-0.56079100	-0.70459000	-0.50976600	-0.06762700	-0.83569300	-0.19628900	0.00659200	-0.28833000	0.74462900	0.22949200	-0.70361300	0.35083000	0.29858400	-0.66601600	-0.10888700	-0.40429700	-0.84130900	0.02539100	0.01538100
922	9.21000000	-0.92871100	-0.19653300	0.02856400	-0.68896500	0.30224600	-0.56274400	-0.69384800	-0.51611300	-0.06518600	-0.83764600	-0.20043900	0.00903300	-0.27294900	0.75781200	0.22412100	-0.71460000	0.34423800	0.28540000	-0.66772500	-0.11694300	-0.39990200	-0.83764600	0.04272500	0.05346700
923	9.22000000	-0.93090800	-0.19653300	0.02856400	-0.69335900	0.30419900	-0.55346700	-0.69335900	-0.53076200	-0.05590800	-0.83569300	-0.20239300	0.01611300	-0.25537100	0.76879900	0.21679700	-0.72314500	0.33960000	0.28540000	-0.66552700	-0.12109400	-0.39794900	-0.83154300	0.06445300	0.08715800
924	9.23000000	-0.92846700	-0.20288100	0.02880900	-0.69311500	0.30419900	-0.56274400	-0.68066400	-0.53686500	-0.04663100	-0.82910200	-0.20849600	0.02099600	-0.23559600	0.77539100	0.20947300	-0.72509800	0.33105500	0.28320300	-0.66552700	-0.12304700	-0.39355500	-0.82788100	0.08203100	0.12988300
925	9.24000000	-0.92846700	-0.20068400	0.02441400	-0.69506800	0.29589800	-0.56250000	-0.67797900	-0.55371100	-0.04150400	-0.82470700	-0.21899400	0.02124000	-0.21777300	0.77783200	0.21118200	-0.73339800	0.31787100	0.27661100	-0.67163100	-0.13134800	-0.39575200	-0.81298800	0.10180700	0.15454100
926	9.25000000	-0.93261700	-0.20507800	0.02441400	-0.68432600	0.29589800	-0.56494100	-0.67358400	-0.55786100	-0.04589800	-0.82226600	-0.22924800	0.01928700	-0.19970700	0.78002900	0.20874000	-0.73730500	0.30468800	0.26782200	-0.66528300	-0.13134800	-0.38940400	-0.80249000	0.12133800	0.20166000
927	9.26000000	-0.92846700	-0.20068400	0.01977500	-0.68823200	0.28320300	-0.56909200	-0.66528300	-0.55786100	-0.04370100	-0.81958000	-0.24585000	0.02221700	-0.17993200	0.78442400	0.20605500	-0.74585000	0.29370100	0.26562500	-0.66088900	-0.14135700	-0.38916000	-0.79443400	0.14331100	0.22631800
928	9.27000000	-0.93066400	-0.20507800	0.02002000	-0.69043000	0.28540000	-0.57153300	-0.65893600	-0.56201200	-0.05249000	-0.81103500	-0.25610400	0.03198200	-0.16406200	0.78442400	0.20800800	-0.75415000	0.27832000	0.26806600	-0.66918900	-0.13964800	-0.38916000	-0.77734400	0.16967800	0.24877900
929	9.28000000	-0.92846700	-0.20703100	0.02246100	-0.69043000	0.28320300	-0.56909200	-0.67114300	-0.56396500	-0.05688500	-0.81079100	-0.26660200	0.02758800	-0.15087900	0.79321300	0.20752000	-0.75146500	0.26318400	0.26611300	-0.66918900	-0.14575200	-0.39111300	-0.76684600	0.18945300	0.27124000
930	9.29000000	-0.93261700	-0.20922900	0.02465800	-0.68823200	0.28125000	-0.57592800	-0.66699200	-0.56616200	-0.06567400	-0.80639600	-0.27270500	0.03027300	-0.14209000	0.79321300	0.22070300	-0.76440400	0.25439500	0.25048800	-0.66284200	-0.14746100	-0.39746100	-0.75000000	0.21582000	0.29589800
931	9.30000000	-0.93701200	-0.20727500	0.02002000	-0.68823200	0.28540000	-0.58081100	-0.66064500	-0.57031200	-0.07006800	-0.80200200	-0.28100600	0.03735400	-0.12646500	0.79321300	0.20703100	-0.77050800	0.24340800	0.25512700	-0.66479500	-0.14965800	-0.39331100	-0.74389600	0.23120100	0.29809600
932	9.31000000	-0.93286100	-0.20288100	0.02221700	-0.68798800	0.27929700	-0.58056600	-0.65795900	-0.58276400	-0.06958000	-0.80175800	-0.28515600	0.03979500	-0.11303700	0.79541000	0.20898400	-0.77441400	0.22827100	0.25293000	-0.66699200	-0.14965800	-0.38916000	-0.74877900	0.24023400	0.28222700
933	9.32000000	-0.93066400	-0.20288100	0.02002000	-0.68994100	0.27294900	-0.58960000	-0.65600600	-0.58276400	-0.07641600	-0.79956100	-0.29126000	0.04467800	-0.10888700	0.80444300	0.19970700	-0.77856400	0.21728500	0.23950200	-0.66259800	-0.15380900	-0.38891600	-0.75366200	0.24902300	0.26416000
934	9.33000000	-0.93066400	-0.20507800	0.02441400	-0.69213900	0.27294900	-0.58252000	-0.64721700	-0.59106400	-0.06933600	-0.79516600	-0.29956100	0.04272500	-0.09985400	0.80444300	0.18383800	-0.78491200	0.21069300	0.23291000	-0.66479500	-0.15161100	-0.39746100	-0.76025400	0.25122100	0.24169900
935	9.34000000	-0.92846700	-0.20288100	0.01782200	-0.69213900	0.27490200	-0.58032200	-0.65136700	-0.59106400	-0.07592800	-0.79907200	-0.30590800	0.04760700	-0.09570300	0.81103500	0.16333000	-0.79126000	0.20190400	0.22851600	-0.66674800	-0.15991200	-0.38671900	-0.77197300	0.26245100	0.22143600
936	9.35000000	-0.93286100	-0.19873000	0.02636700	-0.68554700	0.26879900	-0.58715800	-0.64282200	-0.59741200	-0.06689500	-0.79248000	-0.31396500	0.04321300	-0.09594700	0.81347700	0.13647500	-0.79956100	0.18872100	0.22876000	-0.66870100	-0.15991200	-0.38671900	-0.77002000	0.26684600	0.19677700
937	9.36000000	-0.93261700	-0.20703100	0.02880900	-0.69409200	0.26440400	-0.58935500	-0.64282200	-0.59936500	-0.06689500	-0.78833000	-0.32031200	0.05029300	-0.10717800	0.81787100	0.10961900	-0.79467800	0.17358400	0.22876000	-0.66870100	-0.16186500	-0.39306600	-0.78540000	0.26464800	0.17431600
938	9.37000000	-0.92846700	-0.20068400	0.03100600	-0.68750000	0.26464800	-0.58935500	-0.64062500	-0.60156200	-0.06225600	-0.78393600	-0.32641600	0.05761700	-0.11401400	0.82006800	0.07373000	-0.79687500	0.17358400	0.22876000	-0.66870100	-0.15991200	-0.38671900	-0.79003900	0.26269500	0.14062500
939	9.38000000	-0.93066400	-0.20068400	0.03320300	-0.68750000	0.26025400	-0.59155300	-0.64062500	-0.60571300	-0.06445300	-0.77734400	-0.33667000	0.04199200	-0.12548800	0.82470700	0.04687500	-0.80078100	0.15844700	0.22900400	-0.66430700	-0.16796900	-0.38452100	-0.79638700	0.25610400	0.11572300
940	9.39000000	-0.92871100	-0.19873000	0.03076200	-0.69165000	0.26025400	-0.58911100	-0.63208000	-0.60791000	-0.06420900	-0.77929700	-0.34301800	0.05127000	-0.14770500	0.81372100	0.03637700	-0.80249000	0.14111300	0.23364300	-0.66430700	-0.17407200	-0.38647500	-0.80957000	0.25195300	0.07983400
941	9.40000000	-0.93286100	-0.19873000	0.03295900	-0.69140600	0.25195300	-0.59350600	-0.63208000	-0.60986300	-0.06640600	-0.77685500	-0.34716800	0.05151400	-0.16137700	0.82031200	0.02954100	-0.80859400	0.13012700	0.23608400	-0.66210900	-0.17211900	-0.38671900	-0.81152300	0.24340800	0.04394500
942	9.41000000	-0.93286100	-0.20288100	0.03759800	-0.69580100	0.25390600	-0.59130900	-0.63378900	-0.61816400	-0.06835900	-0.77246100	-0.35546900	0.05175800	-0.18554700	0.81152300	0.02807600	-0.80615200	0.11914100	0.24292000	-0.66015600	-0.17016600	-0.38037100	-0.81323200	0.23022500	0.01464800
943	9.42000000	-0.93286100	-0.19873000	0.03515600	-0.69555700	0.24560500	-0.59545900	-0.63598600	-0.61401400	-0.07519500	-0.76806600	-0.36157200	0.05200200	-0.20556600	0.80688500	0.02417000	-0.80590800	0.11279300	0.22949200	-0.66210900	-0.17407200	-0.38647500	-0.81274400	0.21728500	-0.02343800
944	9.43000000	-0.93066400	-0.20507800	0.04199200	-0.69531200	0.24145500	-0.59545900	-0.62304700	-0.62451200	-0.08154300	-0.76171900	-0.36987300	0.05224600	-0.23217800	0.79370100	0.02734400	-0.81201200	0.09741200	0.24096700	-0.65576200	-0.17822300	-0.38867200	-0.81884800	0.19751000	-0.05249000
945	9.44000000	-0.93286100	-0.19873000	0.03955100	-0.69531200	0.23730500	-0.59301800	-0.62939500	-0.62451200	-0.07934600	-0.76147500	-0.37182600	0.05468800	-0.25878900	0.78710900	0.03247100	-0.81176800	0.09082000	0.23657200	-0.66210900	-0.17822300	-0.38232400	-0.81372100	0.18017600	-0.08178700
